<svg width="189" height="65" viewBox="0 0 189 65" fill="none" xmlns="http://www.w3.org/2000/svg">
<path opacity="0.5" d="M186.186 64H188.984C185.354 50.1271 178.782 37.2177 169.723 26.1666C160.664 15.1155 149.335 6.18699 136.522 0L129.751 0C143.415 5.53273 155.623 14.1918 165.415 25.2967C175.207 36.4016 182.317 49.6497 186.186 64Z" fill="#1F3341"/>
<path opacity="0.5" d="M78.396 57.5425L77.9444 47.7299H67.8012L40.6208 20.2627H145.542L118.357 47.7299H108.214L107.763 57.5385L101.552 63.9995H102.343L108.322 57.7848L108.758 48.3034H118.593L146.909 19.6934H39.25L67.4855 48.2186L67.5654 48.3034H77.4049L77.8405 57.7808L83.6675 63.9995H84.4468L78.396 57.5425Z" fill="#1F3341"/>
<path opacity="0.5" d="M31.6485 19.7867V20.8932C30.8492 21.6604 30.0499 22.4357 29.2505 23.2312C18.0359 34.548 9.89814 48.595 5.62305 64.0162H8.4486C12.6531 49.334 20.4712 35.9678 31.1729 25.1655L31.7284 24.6325C31.9442 37.7563 32.1587 50.8815 32.3718 64.0081H35.0815L34.47 26.7202L69.7954 64H73.5361L34.0903 22.359C46.671 10.7118 62.2922 2.95238 79.1033 0L67.4254 0C54.3359 4.06551 42.3078 11.0278 32.216 20.3803L31.6485 19.7867Z" fill="#1F3341"/>
<path opacity="0.5" d="M2.79757 64C6.66812 49.6474 13.781 36.3976 23.5769 25.2925C33.3729 14.1874 45.5848 5.52963 59.2526 0L52.4785 0C39.6617 6.18514 28.3295 15.1128 19.2678 26.164C10.2061 37.2153 3.63152 50.1256 0 64H2.79757Z" fill="#1F3341"/>
<path opacity="0.5" d="M111.331 64H115L151.469 23.518L151.441 64H154.146C154.146 49.8935 154.157 35.7884 154.178 21.6846C155.425 22.8126 156.64 23.9729 157.823 25.1655C168.521 35.9637 176.338 49.3241 180.543 64H183.369C179.094 48.5789 170.956 34.5319 159.741 23.2151C157.963 21.4141 156.101 19.6939 154.178 18.0463V16.4311L153.355 17.3639C144 9.51239 133.199 3.61087 121.575 0H109.905C125.213 2.68727 139.562 9.36885 151.529 19.3829L111.331 64Z" fill="#1F3341"/>
</svg>
