<svg width="134" height="33" viewBox="0 0 134 33" fill="none" xmlns="http://www.w3.org/2000/svg">
<g clip-path="url(#clip0_95_2275)">
<path d="M52.2712 24.1569L51.6672 24.72C51.2632 24.3126 50.7832 23.987 50.2538 23.7614C49.7815 23.5547 49.272 23.4447 48.7558 23.4379C48.1492 23.4356 47.5522 23.5883 47.0223 23.8813C46.4941 24.1563 46.053 24.5711 45.7479 25.0795C45.4541 25.5621 45.2995 26.1154 45.3009 26.6792C45.3016 27.261 45.4647 27.8313 45.772 28.3268C46.0865 28.8342 46.533 29.2481 47.0646 29.5251C47.6211 29.8224 48.2446 29.9749 48.8766 29.9684C49.5984 30.0031 50.3097 29.787 50.888 29.3573C51.4299 28.9301 51.7795 28.3077 51.8605 27.6258H49.4021V26.8589H52.7302C52.7532 27.376 52.671 27.8924 52.4883 28.3772C52.3057 28.8621 52.0264 29.3054 51.6672 29.6808C51.2928 30.0352 50.8497 30.3103 50.3648 30.4895C49.8799 30.6687 49.3633 30.7483 48.8464 30.7233C48.2079 30.7514 47.5712 30.6356 46.9843 30.3844C46.3974 30.1333 45.8755 29.7534 45.4579 29.2734C44.8286 28.5615 44.4865 27.644 44.4976 26.6972C44.4928 25.9853 44.6827 25.2854 45.0472 24.6721C45.405 24.0545 45.9275 23.5466 46.5572 23.2043C47.224 22.8451 47.9731 22.6635 48.7317 22.677C49.3648 22.6716 49.9928 22.7897 50.5799 23.0245C51.2095 23.2948 51.783 23.6788 52.2712 24.1569ZM58.9153 28.6503L59.5193 28.9739C59.3444 29.3419 59.1028 29.6749 58.8066 29.9564C58.5441 30.1945 58.2388 30.3814 57.9066 30.5076C57.5443 30.6343 57.1609 30.6912 56.7771 30.6754C56.3669 30.6978 55.957 30.6274 55.5782 30.4697C55.1994 30.3119 54.8617 30.0709 54.5906 29.7647C54.0793 29.2006 53.7973 28.4683 53.7993 27.7097C53.7911 27.0127 54.0282 26.3347 54.4698 25.7925C54.7323 25.4459 55.0753 25.1675 55.4697 24.9807C55.8641 24.794 56.2981 24.7046 56.7348 24.72C57.1834 24.7052 57.6291 24.7969 58.0347 24.9876C58.4403 25.1784 58.794 25.4625 59.0663 25.8165C59.4823 26.3753 59.6953 27.0574 59.6703 27.7516H54.5543C54.5539 28.3482 54.7829 28.9225 55.1946 29.3573C55.3915 29.5561 55.628 29.712 55.889 29.8152C56.1501 29.9184 56.4299 29.9665 56.7107 29.9564C57.0013 29.9577 57.2898 29.907 57.5623 29.8067C57.8182 29.7155 58.0555 29.5796 58.263 29.4052C58.5068 29.1838 58.7182 28.9297 58.8912 28.6503H58.9153ZM58.9153 27.1226C58.8402 26.7864 58.6941 26.4699 58.4865 26.1939C58.288 25.9497 58.0332 25.7566 57.7435 25.6307C57.4374 25.488 57.1033 25.4144 56.765 25.415C56.2322 25.4062 55.716 25.599 55.3214 25.9543C54.9845 26.279 54.7531 26.6963 54.657 27.1525L58.9153 27.1226ZM61.0898 24.8638H61.8266V25.8764C62.0859 25.5203 62.4197 25.2239 62.8051 25.0076C63.1631 24.816 63.5641 24.717 63.9709 24.72C64.3725 24.7138 64.7672 24.8242 65.1064 25.0376C65.4335 25.2492 65.6884 25.5542 65.8373 25.9123C66.0289 26.4584 66.111 27.0365 66.0789 27.6138V30.5556H65.342V27.8295C65.3574 27.3905 65.329 26.951 65.2574 26.5174C65.2093 26.1837 65.0341 25.881 64.7678 25.6715C64.5016 25.462 64.1645 25.3616 63.8259 25.3911C63.3829 25.3855 62.9531 25.5411 62.6179 25.8284C62.2735 26.1052 62.0296 26.486 61.9233 26.9129C61.8314 27.4208 61.795 27.937 61.8146 28.4526V30.5556H61.0656L61.0898 24.8638ZM67.5587 24.8638H68.2533V27.512C68.2345 27.9581 68.271 28.4048 68.3621 28.8421C68.458 29.1785 68.6722 29.4697 68.9661 29.6629C69.2912 29.8753 69.6767 29.9783 70.0654 29.9564C70.436 29.9692 70.8015 29.8666 71.1103 29.6629C71.3916 29.4778 71.6038 29.2063 71.7143 28.89C71.8092 28.433 71.8457 27.966 71.823 27.5V24.8638H72.572V27.6438C72.607 28.2551 72.5145 28.867 72.3002 29.4412C72.1247 29.828 71.8338 30.1522 71.4667 30.3698C71.0374 30.5904 70.5609 30.7056 70.0774 30.7056C69.5939 30.7056 69.1175 30.5904 68.6882 30.3698C68.3179 30.1516 68.0247 29.8251 67.8486 29.4352C67.64 28.8596 67.5477 28.2488 67.5768 27.6378L67.5587 24.8638ZM74.4445 22.5272C74.5657 22.5253 74.6847 22.5596 74.786 22.6257C74.8873 22.6917 74.9663 22.7865 75.0125 22.8977C75.0588 23.0089 75.0703 23.1313 75.0454 23.249C75.0206 23.3667 74.9606 23.4743 74.8733 23.5577C74.8169 23.6133 74.7499 23.6572 74.6763 23.687C74.6027 23.7168 74.5239 23.7319 74.4445 23.7315C74.325 23.731 74.2084 23.6954 74.1093 23.6291C74.0103 23.5629 73.9333 23.469 73.888 23.3593C73.8427 23.2497 73.8313 23.1292 73.8551 23.0131C73.8789 22.8969 73.9368 22.7904 74.0216 22.707C74.0728 22.6523 74.1344 22.6083 74.2028 22.5775C74.2712 22.5466 74.3452 22.5295 74.4203 22.5272H74.4445ZM74.082 24.8638H74.8129V30.5556H74.082V24.8638ZM76.341 24.8638H77.0779V25.8764C77.3372 25.5203 77.671 25.2239 78.0564 25.0076C78.4144 24.816 78.8154 24.717 79.2222 24.72C79.6237 24.7148 80.0181 24.8251 80.3577 25.0376C80.6848 25.2492 80.9397 25.5542 81.0886 25.9123C81.2746 26.4597 81.3546 27.037 81.3241 27.6138V30.5556H80.5933V27.8295C80.6087 27.3905 80.5803 26.951 80.5087 26.5174C80.4606 26.1826 80.2845 25.8789 80.0169 25.6693C79.7493 25.4596 79.4107 25.36 79.0712 25.3911C78.6281 25.3855 78.1984 25.5411 77.8632 25.8284C77.5172 26.1049 77.2713 26.4856 77.1625 26.9129C77.077 27.4215 77.0426 27.9373 77.0598 28.4526V30.5556H76.3229L76.341 24.8638ZM87.7146 28.6503L88.3186 28.9739C88.1364 29.3438 87.8866 29.677 87.5817 29.9564C87.3182 30.1932 87.0132 30.3801 86.6817 30.5076C86.321 30.6425 85.9376 30.7075 85.5522 30.6994C85.142 30.7217 84.7321 30.6514 84.3533 30.4936C83.9745 30.3359 83.6368 30.0948 83.3657 29.7887C82.8544 29.2246 82.5724 28.4923 82.5745 27.7337C82.5663 27.0367 82.8034 26.3587 83.2449 25.8165C83.5074 25.4699 83.8504 25.1914 84.2448 25.0047C84.6392 24.818 85.0732 24.7285 85.5099 24.744C85.9585 24.7291 86.4042 24.8209 86.8098 25.0116C87.2154 25.2023 87.5691 25.4865 87.8414 25.8404C88.2579 26.399 88.4708 27.0813 88.4454 27.7756H83.3536C83.3592 28.3639 83.5878 28.9285 83.9939 29.3573C84.1908 29.5561 84.4273 29.712 84.6883 29.8152C84.9493 29.9184 85.2292 29.9665 85.5099 29.9564C85.8006 29.9577 86.0891 29.907 86.3616 29.8067C86.6175 29.7155 86.8548 29.5796 87.0623 29.4052C87.306 29.1838 87.5175 28.9297 87.6904 28.6503H87.7146ZM87.7146 27.1226C87.6395 26.7864 87.4933 26.4699 87.2857 26.1939C87.0863 25.9483 86.8291 25.7549 86.5368 25.6307C86.233 25.4873 85.9007 25.4136 85.5643 25.415C85.0315 25.4062 84.5153 25.599 84.1207 25.9543C83.7844 26.2804 83.5514 26.6969 83.4503 27.1525L87.7146 27.1226ZM99.4626 29.6988L100.61 31.1367H99.6619L98.8707 30.1422C98.0834 30.6052 97.1641 30.7974 96.2554 30.6891C95.3467 30.5807 94.4995 30.1779 93.8453 29.543C93.46 29.1797 93.1539 28.7418 92.9461 28.2564C92.7383 27.771 92.6332 27.2485 92.6373 26.7211C92.6326 26.0025 92.8201 25.2954 93.1809 24.6721C93.5307 24.0549 94.0418 23.5427 94.6605 23.1894C95.2792 22.8362 95.9825 22.655 96.6962 22.665C97.2321 22.657 97.7641 22.7556 98.2609 22.9549C98.7577 23.1542 99.2092 23.4503 99.5887 23.8256C99.9682 24.2009 100.268 24.6479 100.47 25.14C100.673 25.6322 100.774 26.1597 100.767 26.6912C100.776 27.2467 100.667 27.7977 100.447 28.3088C100.209 28.8352 99.8662 29.3081 99.4385 29.6988H99.4626ZM98.9855 29.0997C99.5169 28.5806 99.8634 27.9039 99.9724 27.172C100.081 26.4401 99.947 25.6929 99.5895 25.0436C99.3054 24.5417 98.8874 24.1271 98.3814 23.8453C97.8849 23.5566 97.3201 23.4036 96.7446 23.402C96.1688 23.4022 95.6037 23.5553 95.1077 23.8453C94.601 24.1261 94.1827 24.5409 93.8997 25.0436C93.6094 25.5552 93.4614 26.1341 93.4708 26.7211C93.4676 27.1429 93.5482 27.5611 93.708 27.9519C93.8678 28.3427 94.1036 28.6985 94.402 28.9989C94.7003 29.2994 95.0555 29.5385 95.4471 29.7028C95.8386 29.8671 96.259 29.9533 96.6842 29.9564C97.2739 29.9611 97.854 29.8079 98.3633 29.5131L96.6419 27.3682H97.5841L98.9855 29.0997ZM102.144 24.8638H102.875V27.512C102.856 27.9581 102.893 28.4048 102.984 28.8421C103.08 29.1785 103.294 29.4697 103.588 29.6629C103.9 29.871 104.269 29.9778 104.645 29.9684C105.016 29.9812 105.381 29.8785 105.69 29.6748C105.971 29.4898 106.183 29.2183 106.294 28.902C106.389 28.445 106.425 27.978 106.403 27.512V24.8638H107.152V27.6438C107.187 28.2551 107.094 28.867 106.88 29.4412C106.704 29.828 106.413 30.1522 106.046 30.3698C105.617 30.5904 105.141 30.7056 104.657 30.7056C104.174 30.7056 103.697 30.5904 103.268 30.3698C102.898 30.1516 102.604 29.8251 102.428 29.4352C102.22 28.8596 102.127 28.2488 102.157 27.6378L102.144 24.8638ZM114.466 24.8638V30.5556H113.741V29.555C113.462 29.9047 113.109 30.1907 112.709 30.3938C112.315 30.5826 111.883 30.6789 111.446 30.6754C111.051 30.6879 110.658 30.6169 110.292 30.4671C109.927 30.3173 109.597 30.0922 109.326 29.8067C108.767 29.2384 108.459 28.4734 108.468 27.6797C108.463 27.2909 108.537 26.905 108.686 26.5455C108.836 26.186 109.058 25.8605 109.338 25.5888C109.606 25.3087 109.929 25.0868 110.288 24.9373C110.647 24.7878 111.033 24.7138 111.422 24.72C111.865 24.7128 112.302 24.8136 112.697 25.0136C113.095 25.2286 113.437 25.5346 113.693 25.9063V24.8638H114.466ZM111.531 25.421C111.132 25.4195 110.74 25.5229 110.395 25.7206C110.048 25.9211 109.762 26.2109 109.568 26.5594C109.37 26.909 109.266 27.303 109.266 27.7037C109.266 28.1052 109.372 28.4997 109.574 28.848C109.768 29.2017 110.057 29.4958 110.407 29.6988C110.745 29.9002 111.131 30.0059 111.525 30.0044C111.925 30.0044 112.318 29.9012 112.666 29.7048C113.017 29.5148 113.306 29.2302 113.5 28.884C113.696 28.53 113.796 28.1315 113.79 27.7277C113.798 27.4237 113.745 27.1211 113.633 26.838C113.521 26.555 113.352 26.2972 113.137 26.0801C112.927 25.8635 112.673 25.693 112.392 25.5795C112.111 25.466 111.81 25.412 111.507 25.421H111.531ZM115.97 22.677H116.707V30.5556H115.97V22.677ZM118.489 22.5272C118.569 22.5276 118.648 22.5436 118.722 22.5745C118.795 22.6053 118.862 22.6504 118.918 22.707C118.974 22.763 119.018 22.8294 119.048 22.9024C119.078 22.9753 119.093 23.0535 119.093 23.1324C119.093 23.2112 119.078 23.2894 119.048 23.3624C119.018 23.4354 118.974 23.5018 118.918 23.5577C118.861 23.6133 118.794 23.6572 118.721 23.687C118.647 23.7168 118.568 23.7319 118.489 23.7315C118.37 23.731 118.253 23.6954 118.154 23.6291C118.055 23.5629 117.978 23.469 117.933 23.3593C117.887 23.2497 117.876 23.1292 117.9 23.0131C117.923 22.8969 117.981 22.7904 118.066 22.707C118.122 22.6471 118.191 22.6 118.267 22.569C118.343 22.5379 118.425 22.5237 118.507 22.5272H118.489ZM118.121 24.8638H118.857V30.5556H118.121V24.8638ZM121.044 22.7669H121.781V24.8638H122.947V25.463H121.781V30.5556H121.044V25.4929H120.041V24.8938H121.044V22.7669ZM123.46 24.8698H124.233L126.202 29.2315L128.105 24.8698H128.89L125.483 32.6106H124.704L125.804 30.1062L123.46 24.8698ZM58.6435 3.83443H58.8428V19.0823H55.9436V10.9221L51.4376 15.7151H51.2444L46.7747 10.9221V19.0823H43.8815V3.83443H44.0566L51.341 11.8268L58.6435 3.83443ZM68.7969 3.96624H65.8373L60.2562 19.0823H63.5481L67.3111 8.29794L71.0801 19.0823H74.372L68.7969 3.96624ZM84.7549 12.4559L75.9786 3.83443H75.7854V19.0823H78.6786V10.6166L87.4549 19.256H87.6542V3.96624H84.7549V12.4559ZM89.4843 3.96624V6.72822H100.586V3.96624H89.4843ZM93.6218 19.0823H96.5211V8.98694H93.6218V19.0823ZM108.432 3.83443C104.053 3.83443 101.027 7.20153 101.027 11.5452C101.027 15.8889 104.047 19.256 108.432 19.256C112.817 19.256 115.813 15.8889 115.813 11.5452C115.813 7.20153 112.793 3.83443 108.432 3.83443ZM108.432 16.4161C105.642 16.4161 103.987 14.3431 103.987 11.5752C103.987 8.8072 105.642 6.7402 108.432 6.7402C111.223 6.7402 112.848 8.81319 112.848 11.5752C112.848 14.3372 111.193 16.4161 108.432 16.4161ZM108.432 10.1073C108.725 10.1085 109.01 10.1956 109.253 10.3576C109.495 10.5196 109.684 10.7493 109.795 11.0176C109.906 11.2859 109.935 11.5809 109.877 11.8652C109.819 12.1495 109.678 12.4105 109.47 12.6152C109.263 12.8199 109 12.9591 108.713 13.0153C108.426 13.0714 108.129 13.042 107.858 12.9307C107.588 12.8194 107.358 12.6313 107.195 12.39C107.033 12.1488 106.946 11.8652 106.946 11.5752C106.946 11.3819 106.985 11.1905 107.06 11.0121C107.134 10.8336 107.244 10.6715 107.382 10.5351C107.52 10.3987 107.684 10.2907 107.864 10.2173C108.044 10.1439 108.237 10.1065 108.432 10.1073ZM125.701 19.0942H128.963L125.701 13.4804C126.594 13.1102 127.351 12.4764 127.868 11.6651C128.386 10.8537 128.639 9.90408 128.594 8.945C128.594 6.17702 126.698 3.97822 123.303 3.97822H117.661V6.7402H123.218C123.523 6.71388 123.83 6.7518 124.119 6.85148C124.408 6.95117 124.672 7.11035 124.895 7.31858C125.117 7.52682 125.293 7.77938 125.41 8.05969C125.527 8.34 125.583 8.64171 125.574 8.945C125.584 9.24926 125.528 9.55208 125.412 9.83366C125.295 10.1152 125.12 10.3692 124.897 10.579C124.675 10.7889 124.411 10.9497 124.121 11.0512C123.832 11.1526 123.524 11.1924 123.218 11.1678H117.661V19.0823H120.561V13.8998H122.669L125.701 19.0942ZM131.874 4.45153H132.436L131.874 3.49293C132.027 3.42919 132.157 3.32027 132.245 3.18093C132.334 3.0416 132.377 2.8786 132.369 2.71406C132.373 2.59716 132.352 2.48078 132.307 2.3726C132.262 2.26442 132.195 2.16691 132.109 2.0865C132.023 2.00609 131.922 1.94462 131.81 1.90614C131.699 1.86767 131.581 1.85306 131.463 1.8633H130.497V2.33661H131.451C131.503 2.33144 131.556 2.33746 131.606 2.35426C131.656 2.37106 131.702 2.39826 131.74 2.43403C131.778 2.46979 131.809 2.51329 131.828 2.5616C131.848 2.6099 131.858 2.66189 131.856 2.71406C131.858 2.76647 131.848 2.81867 131.828 2.86724C131.808 2.91582 131.778 2.95966 131.74 2.99588C131.702 3.0321 131.656 3.05988 131.607 3.0774C131.557 3.09491 131.504 3.10176 131.451 3.0975H130.497V4.45153H130.992V3.59478H131.354L131.874 4.45153ZM131.433 5.95534C130.73 5.93188 130.065 5.63307 129.584 5.12436C129.103 4.61565 128.845 3.93852 128.866 3.24129C128.842 2.89222 128.89 2.54195 129.008 2.21223C129.126 1.88252 129.312 1.58041 129.552 1.32466C129.793 1.06892 130.084 0.865006 130.408 0.725589C130.731 0.586171 131.08 0.514228 131.433 0.514228C131.786 0.514228 132.135 0.586171 132.458 0.725589C132.782 0.865006 133.073 1.06892 133.314 1.32466C133.554 1.58041 133.74 1.88252 133.858 2.21223C133.976 2.54195 134.024 2.89222 134 3.24129C134.021 3.93852 133.763 4.61565 133.282 5.12436C132.801 5.63307 132.136 5.93188 131.433 5.95534ZM131.433 0.868744C131.128 0.88029 130.828 0.951564 130.551 1.07846C130.274 1.20535 130.025 1.38536 129.819 1.60812C129.612 1.83088 129.452 2.09198 129.348 2.37638C129.243 2.66079 129.196 2.96288 129.21 3.26526C129.188 3.56846 129.228 3.87302 129.33 4.1599C129.431 4.44678 129.591 4.70982 129.8 4.93256C130.009 5.15531 130.261 5.33299 130.542 5.45449C130.823 5.57598 131.126 5.63869 131.433 5.63869C131.739 5.63869 132.043 5.57598 132.324 5.45449C132.605 5.33299 132.857 5.15531 133.066 4.93256C133.275 4.70982 133.435 4.44678 133.536 4.1599C133.638 3.87302 133.678 3.56846 133.656 3.26526C133.669 2.96288 133.623 2.66079 133.518 2.37638C133.414 2.09198 133.254 1.83088 133.047 1.60812C132.841 1.38536 132.592 1.20535 132.315 1.07846C132.038 0.951564 131.738 0.88029 131.433 0.868744ZM130.497 3.89434H130.992V1.8633H130.497V3.89434ZM16.6345 33C13.3445 33 10.1284 32.0323 7.39287 30.2193C4.65734 28.4062 2.52526 25.8293 1.26623 22.8143C0.00720744 19.7993 -0.322211 16.4817 0.319634 13.281C0.96148 10.0803 2.54576 7.14031 4.87213 4.83275C7.19851 2.52518 10.1625 0.953706 13.3893 0.31705C16.616 -0.319606 19.9607 0.00714917 23.0002 1.256C26.0398 2.50484 28.6377 4.61969 30.4656 7.3331C32.2934 10.0465 33.269 13.2366 33.269 16.5C33.2642 20.8746 31.5101 25.0687 28.3915 28.162C25.273 31.2553 21.0448 32.9953 16.6345 33ZM16.6345 0.599136C13.4582 0.59914 10.3532 1.53372 7.71251 3.28463C5.07182 5.03553 3.01407 7.52407 1.79965 10.4353C0.585223 13.3466 0.268702 16.5498 0.890134 19.6396C1.51157 22.7293 3.04302 25.5668 5.29072 27.793C7.53842 30.0192 10.4013 31.534 13.5172 32.1457C16.6331 32.7575 19.8619 32.4387 22.7951 31.2297C25.7283 30.0207 28.234 27.9759 29.9952 25.3539C31.7564 22.7319 32.6939 19.6507 32.6891 16.5C32.6779 12.2821 30.9821 8.24046 27.973 5.26018C24.9639 2.2799 20.8868 0.603877 16.6345 0.599136ZM16.6345 31.9216C13.5643 31.9216 10.5631 31.0185 8.01032 29.3266C5.45756 27.6347 3.46792 25.2299 2.29301 22.4164C1.11811 19.6028 0.810699 16.5069 1.40966 13.5201C2.00862 10.5332 3.48706 7.78962 5.658 5.63622C7.82894 3.48283 10.5949 2.01635 13.6061 1.42223C16.6173 0.82811 19.7384 1.13303 22.5749 2.29844C25.4114 3.46385 27.8358 5.4374 29.5415 7.96952C31.2472 10.5016 32.1576 13.4786 32.1576 16.524C32.1464 20.6021 30.5066 24.5096 27.5972 27.391C24.6878 30.2724 20.7458 31.8929 16.6345 31.8976V31.9216ZM16.6345 2.13291C13.7674 2.13291 10.9647 2.97622 8.58079 4.55622C6.19689 6.13621 4.33886 8.38192 3.24167 11.0094C2.14448 13.6368 1.85741 16.5279 2.41675 19.3172C2.97609 22.1065 4.35673 24.6686 6.38407 26.6795C8.41141 28.6905 10.9944 30.06 13.8064 30.6148C16.6184 31.1696 19.5331 30.8849 22.182 29.7965C24.8308 28.7082 27.0948 26.8652 28.6877 24.5006C30.2806 22.136 31.1308 19.3559 31.1308 16.512C31.1339 14.6217 30.7613 12.7493 30.0342 11.002C29.3072 9.25467 28.2399 7.66671 26.8935 6.32895C25.547 4.99119 23.9479 3.92989 22.1876 3.20577C20.4272 2.48166 18.5402 2.10894 16.6345 2.10894V2.13291ZM16.417 31.1367L11.887 20.3524L16.411 24.5643L20.9471 20.3704L16.417 31.1367ZM13.4695 22.6231L16.417 29.6209L19.3646 22.6231L16.411 25.3731L13.4695 22.6231ZM21.1404 31.6999L21.0619 19.2081L16.3808 23.7674L11.7782 19.2201L11.7058 31.5921L6.33609 18.4112L6.10657 5.0207L16.3748 15.5354L26.5765 4.48149L26.643 18.4951L21.1404 31.6999ZM21.7807 17.5065L21.8471 28.1231L25.9061 18.3573L25.8457 6.32681L16.3868 16.5899L6.86158 6.83007L7.05486 18.3513L10.9991 27.9733L11.0655 17.5006L16.3808 22.7669L21.7807 17.5065ZM16.1211 14.2533L13.3245 11.3235L13.2883 9.96951H11.8024L6.49917 4.70317H25.8275L20.5183 9.96951H19.0687L19.0022 11.3295L16.1211 14.2533ZM14.0372 11.024L16.1211 13.2108L18.2653 11.024L18.3499 9.22659H20.1982L24.0578 5.39816H8.24477L12.0802 9.25055H13.9527L14.0372 11.024Z" fill="white"/>
</g>
<defs>
<clipPath id="clip0_95_2275">
<rect width="134" height="33" fill="white"/>
</clipPath>
</defs>
</svg>
