<svg width="283" height="283" viewBox="0 0 283 283" fill="none" xmlns="http://www.w3.org/2000/svg">
<mask id="mask0_95_2270" style="mask-type:alpha" maskUnits="userSpaceOnUse" x="0" y="0" width="283" height="283">
<g clip-path="url(#clip0_95_2270)">
<path d="M141.5 283C113.514 283 86.1564 274.701 62.8869 259.153C39.6173 243.605 21.4809 221.505 10.7711 195.65C0.0613099 169.794 -2.74086 141.343 2.71895 113.895C8.17875 86.4465 21.6553 61.2336 41.4445 41.4445C61.2336 21.6553 86.4465 8.17875 113.895 2.71895C141.343 -2.74086 169.794 0.0613099 195.65 10.7711C221.505 21.4809 243.605 39.6173 259.153 62.8869C274.701 86.1564 283 113.514 283 141.5C282.959 179.016 268.038 214.983 241.511 241.511C214.983 268.038 179.016 282.959 141.5 283ZM141.5 5.13804C114.481 5.13807 88.0687 13.1528 65.6059 28.1682C43.143 43.1835 25.639 64.5246 15.3086 89.491C4.97816 114.457 2.2857 141.927 7.57186 168.424C12.858 194.921 25.8853 219.255 45.0051 238.346C64.125 257.437 88.4782 270.428 114.983 275.674C141.488 280.92 168.954 278.186 193.905 267.818C218.856 257.45 240.17 239.914 255.152 217.429C270.133 194.943 278.108 168.519 278.068 141.5C277.972 105.328 263.547 70.6682 237.95 45.11C212.354 19.5519 177.672 5.1787 141.5 5.13804ZM141.5 273.752C115.384 273.752 89.854 266.007 68.1392 251.498C46.4243 236.988 29.4996 216.366 19.5054 192.237C9.5111 168.109 6.89615 141.559 11.9912 115.945C17.0862 90.3302 29.6624 66.8019 48.1294 48.3349C66.5963 29.8679 90.1247 17.2917 115.739 12.1967C141.354 7.10167 167.904 9.71662 192.032 19.7109C216.16 29.7051 236.783 46.6298 251.292 68.3447C265.802 90.0596 273.546 115.589 273.546 141.706C273.451 176.678 259.502 210.188 234.753 234.898C210.005 259.609 176.473 273.506 141.5 273.546V273.752ZM141.5 18.2913C117.111 18.2913 93.2703 25.5234 72.9918 39.073C52.7134 52.6227 36.9082 71.8813 27.5751 94.4135C18.2419 116.946 15.7999 141.74 20.5579 165.66C25.3159 189.58 37.0602 211.552 54.3056 228.797C71.5511 246.043 93.5231 257.787 117.443 262.545C141.363 267.303 166.157 264.861 188.689 255.528C211.222 246.195 230.48 230.389 244.03 210.111C257.579 189.833 264.812 165.992 264.812 141.603C264.839 125.392 261.669 109.335 255.484 94.3504C249.299 79.3658 240.22 65.7478 228.767 54.2755C217.314 42.8032 203.711 33.7017 188.737 27.4919C173.763 21.2821 157.711 18.0857 141.5 18.0858V18.2913ZM139.65 267.021L101.116 174.537L139.599 210.657L178.185 174.691L139.65 267.021ZM114.577 194.01L139.65 254.022L164.724 194.01L139.599 217.594L114.577 194.01ZM179.829 271.851L179.161 164.724L139.342 203.824L100.191 164.826L99.5741 270.926L53.8975 157.89L51.945 43.0563L139.291 133.228L226.071 38.4322L226.636 158.61L179.829 271.851ZM185.276 150.132L185.841 241.177L220.368 157.428L219.854 54.2571L139.393 142.271L58.3675 58.573L60.0117 157.376L93.5627 239.892L94.1279 150.08L139.342 195.243L185.276 150.132ZM137.133 122.233L113.344 97.1079L113.036 85.4961H100.396L55.2847 40.3332H219.7L174.537 85.4961H162.206L161.641 97.1593L137.133 122.233ZM119.407 94.5389L137.133 113.293L155.373 94.5389L156.092 79.125H171.814L204.646 46.2933H70.1335L102.76 79.3305H118.687L119.407 94.5389Z" fill="#1F3341"/>
</g>
</mask>
<g mask="url(#mask0_95_2270)">
<rect x="-63.0396" y="-7.45605" width="406.707" height="290.456" fill="#72828F" fill-opacity="0.08"/>
</g>
<defs>
<clipPath id="clip0_95_2270">
<rect width="283" height="283" fill="white"/>
</clipPath>
</defs>
</svg>
